<mxfile host="app.diagrams.net" modified="2024-04-19T07:24:29.822Z" agent="Mozilla/5.0 (Windows NT 10.0; Win64; x64) AppleWebKit/537.36 (KHTML, like Gecko) Chrome/123.0.0.0 Safari/537.36" etag="ZwYnnQBqmDNGCuMHIDBC" version="24.2.5" type="github">
  <diagram name="demo_app" id="geBIEhzVsfp1Pz-ehK7O">
    <mxGraphModel dx="1877" dy="530" grid="1" gridSize="10" guides="1" tooltips="1" connect="1" arrows="1" fold="1" page="1" pageScale="1" pageWidth="827" pageHeight="1169" math="0" shadow="0">
      <root>
        <mxCell id="0" />
        <mxCell id="1" parent="0" />
        <mxCell id="owpYiiaVRYTYWMBdLOHO-11" value="demo app" style="rounded=0;whiteSpace=wrap;html=1;verticalAlign=top;fillColor=#d5e8d4;strokeColor=#82b366;" vertex="1" parent="1">
          <mxGeometry x="50" y="20" width="720" height="470" as="geometry" />
        </mxCell>
        <mxCell id="owpYiiaVRYTYWMBdLOHO-1" value="frontend" style="rounded=0;whiteSpace=wrap;html=1;verticalAlign=top;" vertex="1" parent="1">
          <mxGeometry x="170" y="90" width="120" height="320" as="geometry" />
        </mxCell>
        <mxCell id="owpYiiaVRYTYWMBdLOHO-2" value="data sources" style="rounded=0;whiteSpace=wrap;html=1;verticalAlign=top;" vertex="1" parent="1">
          <mxGeometry x="530" y="90" width="120" height="320" as="geometry" />
        </mxCell>
        <mxCell id="owpYiiaVRYTYWMBdLOHO-3" value="map servicers" style="rounded=0;whiteSpace=wrap;html=1;verticalAlign=top;" vertex="1" parent="1">
          <mxGeometry x="350" y="90" width="120" height="320" as="geometry" />
        </mxCell>
        <mxCell id="owpYiiaVRYTYWMBdLOHO-12" style="edgeStyle=orthogonalEdgeStyle;rounded=0;orthogonalLoop=1;jettySize=auto;html=1;entryX=0;entryY=0.5;entryDx=0;entryDy=0;" edge="1" parent="1" source="owpYiiaVRYTYWMBdLOHO-4" target="owpYiiaVRYTYWMBdLOHO-8">
          <mxGeometry relative="1" as="geometry" />
        </mxCell>
        <mxCell id="owpYiiaVRYTYWMBdLOHO-23" value="9090" style="edgeLabel;html=1;align=center;verticalAlign=middle;resizable=0;points=[];" vertex="1" connectable="0" parent="owpYiiaVRYTYWMBdLOHO-12">
          <mxGeometry x="0.0725" relative="1" as="geometry">
            <mxPoint as="offset" />
          </mxGeometry>
        </mxCell>
        <mxCell id="owpYiiaVRYTYWMBdLOHO-4" value="react app" style="rounded=0;whiteSpace=wrap;html=1;fillColor=#e1d5e7;strokeColor=#9673a6;" vertex="1" parent="1">
          <mxGeometry x="180" y="130" width="100" height="50" as="geometry" />
        </mxCell>
        <mxCell id="owpYiiaVRYTYWMBdLOHO-6" value="npm server" style="rounded=0;whiteSpace=wrap;html=1;" vertex="1" parent="1">
          <mxGeometry x="180" y="210" width="100" height="50" as="geometry" />
        </mxCell>
        <mxCell id="owpYiiaVRYTYWMBdLOHO-7" value="leaflat js" style="rounded=0;whiteSpace=wrap;html=1;fillColor=#60a917;fontColor=#ffffff;strokeColor=#2D7600;" vertex="1" parent="1">
          <mxGeometry x="180" y="290" width="100" height="50" as="geometry" />
        </mxCell>
        <mxCell id="owpYiiaVRYTYWMBdLOHO-13" style="edgeStyle=orthogonalEdgeStyle;rounded=0;orthogonalLoop=1;jettySize=auto;html=1;entryX=0;entryY=0.5;entryDx=0;entryDy=0;" edge="1" parent="1" source="owpYiiaVRYTYWMBdLOHO-8" target="owpYiiaVRYTYWMBdLOHO-9">
          <mxGeometry relative="1" as="geometry" />
        </mxCell>
        <mxCell id="owpYiiaVRYTYWMBdLOHO-21" value="5432" style="edgeLabel;html=1;align=center;verticalAlign=middle;resizable=0;points=[];" vertex="1" connectable="0" parent="owpYiiaVRYTYWMBdLOHO-13">
          <mxGeometry x="0.2338" relative="1" as="geometry">
            <mxPoint as="offset" />
          </mxGeometry>
        </mxCell>
        <mxCell id="owpYiiaVRYTYWMBdLOHO-14" style="edgeStyle=orthogonalEdgeStyle;rounded=0;orthogonalLoop=1;jettySize=auto;html=1;exitX=1;exitY=0.5;exitDx=0;exitDy=0;entryX=0;entryY=0.5;entryDx=0;entryDy=0;" edge="1" parent="1" source="owpYiiaVRYTYWMBdLOHO-8" target="owpYiiaVRYTYWMBdLOHO-10">
          <mxGeometry relative="1" as="geometry" />
        </mxCell>
        <mxCell id="owpYiiaVRYTYWMBdLOHO-22" value="storage" style="edgeLabel;html=1;align=center;verticalAlign=middle;resizable=0;points=[];" vertex="1" connectable="0" parent="owpYiiaVRYTYWMBdLOHO-14">
          <mxGeometry x="0.335" y="2" relative="1" as="geometry">
            <mxPoint as="offset" />
          </mxGeometry>
        </mxCell>
        <mxCell id="owpYiiaVRYTYWMBdLOHO-8" value="geoserver" style="rounded=0;whiteSpace=wrap;html=1;fillColor=#dae8fc;strokeColor=#6c8ebf;" vertex="1" parent="1">
          <mxGeometry x="360" y="210" width="100" height="50" as="geometry" />
        </mxCell>
        <mxCell id="owpYiiaVRYTYWMBdLOHO-9" value="postgis" style="rounded=0;whiteSpace=wrap;html=1;fillColor=#fa6800;fontColor=#000000;strokeColor=#C73500;" vertex="1" parent="1">
          <mxGeometry x="540" y="160" width="100" height="50" as="geometry" />
        </mxCell>
        <mxCell id="owpYiiaVRYTYWMBdLOHO-10" value="gpkg, fgb files" style="rounded=0;whiteSpace=wrap;html=1;" vertex="1" parent="1">
          <mxGeometry x="540" y="290" width="100" height="50" as="geometry" />
        </mxCell>
        <mxCell id="owpYiiaVRYTYWMBdLOHO-18" style="edgeStyle=orthogonalEdgeStyle;rounded=0;orthogonalLoop=1;jettySize=auto;html=1;entryX=0;entryY=0;entryDx=0;entryDy=0;" edge="1" parent="1" source="owpYiiaVRYTYWMBdLOHO-15" target="owpYiiaVRYTYWMBdLOHO-8">
          <mxGeometry relative="1" as="geometry">
            <Array as="points">
              <mxPoint x="-15" y="40" />
              <mxPoint x="340" y="40" />
              <mxPoint x="340" y="210" />
            </Array>
          </mxGeometry>
        </mxCell>
        <mxCell id="owpYiiaVRYTYWMBdLOHO-25" value="ows" style="edgeLabel;html=1;align=center;verticalAlign=middle;resizable=0;points=[];" vertex="1" connectable="0" parent="owpYiiaVRYTYWMBdLOHO-18">
          <mxGeometry x="-0.3903" y="1" relative="1" as="geometry">
            <mxPoint as="offset" />
          </mxGeometry>
        </mxCell>
        <mxCell id="owpYiiaVRYTYWMBdLOHO-15" value="gis system client" style="shape=umlActor;verticalLabelPosition=bottom;verticalAlign=top;html=1;outlineConnect=0;" vertex="1" parent="1">
          <mxGeometry x="-30" y="50" width="30" height="60" as="geometry" />
        </mxCell>
        <mxCell id="owpYiiaVRYTYWMBdLOHO-17" style="edgeStyle=orthogonalEdgeStyle;rounded=0;orthogonalLoop=1;jettySize=auto;html=1;entryX=0;entryY=0.5;entryDx=0;entryDy=0;" edge="1" parent="1" source="owpYiiaVRYTYWMBdLOHO-16" target="owpYiiaVRYTYWMBdLOHO-4">
          <mxGeometry relative="1" as="geometry" />
        </mxCell>
        <mxCell id="owpYiiaVRYTYWMBdLOHO-20" value="web brwoser" style="edgeLabel;html=1;align=center;verticalAlign=middle;resizable=0;points=[];" vertex="1" connectable="0" parent="owpYiiaVRYTYWMBdLOHO-17">
          <mxGeometry x="0.6437" y="-2" relative="1" as="geometry">
            <mxPoint as="offset" />
          </mxGeometry>
        </mxCell>
        <mxCell id="owpYiiaVRYTYWMBdLOHO-16" value="web app client" style="shape=umlActor;verticalLabelPosition=bottom;verticalAlign=top;html=1;outlineConnect=0;" vertex="1" parent="1">
          <mxGeometry x="-30" y="320" width="30" height="60" as="geometry" />
        </mxCell>
      </root>
    </mxGraphModel>
  </diagram>
</mxfile>
